<?xml version="1.0" encoding="UTF-8"?> <svg xmlns="http://www.w3.org/2000/svg" width="2000" height="400" viewBox="0 0 245 72" fill="none"><g clip-path="url(#clip0_13175_26862)"><path d="M70.6432 48.2656C70.6432 51.7213 67.8417 54.5216 64.3861 54.5216C63.7887 54.5216 63.2113 54.4386 62.6643 54.2821C61.6449 58.0759 58.1814 60.8675 54.0672 60.8675C52.457 60.8675 50.9462 60.4397 49.6446 59.6927C47.6076 62.6342 44.2098 64.5629 40.3626 64.5629C38.6376 64.5629 37.0021 64.1757 35.5407 63.481C34.0781 64.1757 32.4438 64.5629 30.7187 64.5629C26.8704 64.5629 23.4726 62.6342 21.4368 59.6927C20.134 60.4397 18.6244 60.8675 17.0141 60.8675C12.8989 60.8675 9.43645 58.0759 8.41594 54.2821C7.87006 54.4386 7.29239 54.5216 6.69526 54.5216C3.23856 54.5216 0.438171 51.7213 0.438171 48.2656C0.438171 44.81 3.23856 42.0075 6.69526 42.0075C7.00712 42.0075 7.31322 42.0305 7.61411 42.0752C7.57465 41.7414 7.55382 41.4002 7.55382 41.0568C7.55382 36.5662 10.9253 32.8645 15.2748 32.3438C15.6204 32.3022 15.9728 32.2813 16.3293 32.2813C18.1081 32.2813 19.7641 32.8108 21.1458 33.7198C23.1367 30.53 26.6811 28.4075 30.7187 28.4075C32.4438 28.4075 34.0781 28.7948 35.5407 29.4883C37.0021 28.7948 38.6376 28.4075 40.3626 28.4075C44.4003 28.4075 47.9447 30.5297 49.9356 33.7198C51.3173 32.8108 52.9733 32.2813 54.7521 32.2813C55.3865 32.2813 56.0047 32.3493 56.6007 32.4773C60.5586 33.3251 63.5264 36.8443 63.5264 41.0568C63.5264 41.4002 63.5067 41.7416 63.4673 42.0752C63.7682 42.0302 64.0743 42.0075 64.3861 42.0075C67.8417 42.0075 70.6432 44.8089 70.6432 48.2656Z" fill="white"></path><g opacity="0.3"><path d="M70.6432 46.8955C70.6432 50.3511 67.8417 53.1515 64.3861 53.1515C63.7887 53.1515 63.2113 53.0684 62.6643 52.9119C61.6449 56.7057 58.1814 59.4973 54.0672 59.4973C52.457 59.4973 50.9462 59.0696 49.6446 58.3225C47.6076 61.264 44.2098 63.1927 40.3626 63.1927C38.6376 63.1927 37.0021 62.8055 35.5407 62.1108C34.0781 62.8055 32.4438 63.1927 30.7187 63.1927C26.8704 63.1927 23.4726 61.264 21.4368 58.3225C20.134 59.0696 18.6244 59.4973 17.0141 59.4973C12.8989 59.4973 9.43645 56.7057 8.41594 52.9119C7.87006 53.0684 7.29239 53.1515 6.69526 53.1515C3.23856 53.1515 0.438171 50.3511 0.438171 46.8955C0.438171 46.3068 0.519012 45.7371 0.671103 45.1967C1.41183 47.8264 3.82719 49.7539 6.69526 49.7539C7.29266 49.7539 7.87006 49.6709 8.41594 49.5144C9.43645 53.3082 12.9017 55.9491 17.0141 56.0998C20.6079 56.2314 23.3074 53.9029 24.6104 53.1556C25.2281 53.799 23.9155 60.1567 30.6335 60.6834C33.7748 60.9297 35.4338 59.3395 36.0457 58.7026C37.2098 59.7451 39.9647 60.3923 41.6887 60.3241C45.5883 60.1695 48.6383 57.5443 49.6451 54.925C50.9468 55.672 52.4575 56.0998 54.0678 56.0998C58.1819 56.0998 61.6455 53.3082 62.6649 49.5144C63.2119 49.6709 63.7895 49.7539 64.3867 49.7539C67.2539 49.7539 69.6704 47.8264 70.4108 45.1967C70.5629 45.7371 70.6437 46.3071 70.6437 46.8955H70.6432Z" fill="#650000"></path></g><path d="M40.3621 65C38.6773 65 37.0564 64.6514 35.5407 63.9633C34.0239 64.6514 32.4024 65 30.7182 65C27.0044 65 23.5154 63.236 21.3064 60.2616C19.9872 60.9453 18.5115 61.3052 17.0139 61.3052C12.9406 61.3052 9.34138 58.6549 8.11451 54.8086C7.65139 54.9086 7.17539 54.9593 6.69418 54.9593C3.0029 54.9593 0 51.9564 0 48.2651C0 44.5738 3.0029 41.5696 6.69418 41.5696C6.84051 41.5696 6.98658 41.5742 7.13127 41.5838C7.12113 41.4081 7.1162 41.2319 7.1162 41.0563C7.1162 35.9765 11.2489 31.844 16.3285 31.844C17.987 31.844 19.5972 32.2844 21.0123 33.1218C23.1983 29.8876 26.7943 27.9699 30.7179 27.9699C32.4021 27.9699 34.0236 28.3185 35.5404 29.0066C37.0561 28.3185 38.6771 27.9699 40.3618 27.9699C44.2852 27.9699 47.8814 29.8876 50.0674 33.1218C51.4825 32.2846 53.0928 31.844 54.7512 31.844C59.8311 31.844 63.9636 35.9767 63.9636 41.0563C63.9636 41.2319 63.9586 41.4081 63.9485 41.5838C64.0934 41.5745 64.2395 41.5696 64.3856 41.5696C68.0769 41.5696 71.0798 44.573 71.0798 48.2651C71.0798 51.9572 68.0769 54.9593 64.3856 54.9593C63.9044 54.9593 63.4284 54.9086 62.9652 54.8086C61.7384 58.6549 58.1392 61.3052 54.0659 61.3052C52.5683 61.3052 51.0929 60.9453 49.7734 60.2616C47.5641 63.236 44.075 65 40.3616 65H40.3621ZM35.5407 63.0434C35.6048 63.0434 35.6692 63.0576 35.7284 63.0859C37.1797 63.7753 38.7384 64.125 40.3621 64.125C43.9199 64.125 47.2552 62.375 49.2842 59.4433C49.4136 59.2565 49.6646 59.1997 49.8619 59.3129C51.1345 60.0438 52.5885 60.4302 54.0664 60.4302C57.8887 60.4302 61.2506 57.8553 62.2418 54.1684C62.2722 54.055 62.347 53.9588 62.449 53.901C62.5512 53.8431 62.6723 53.8292 62.7849 53.8612C63.3001 54.0092 63.8389 54.084 64.3858 54.084C67.5945 54.084 70.205 51.4735 70.205 48.2648C70.205 45.0561 67.5945 42.4443 64.3858 42.4443C64.0965 42.4443 63.8093 42.4654 63.5319 42.507C63.3971 42.5273 63.2606 42.4835 63.1625 42.3886C63.0647 42.2938 63.0165 42.1587 63.0324 42.0234C63.0696 41.7047 63.0888 41.3788 63.0888 41.0557C63.0888 36.4585 59.3488 32.7184 54.7515 32.7184C53.1166 32.7184 51.5343 33.1911 50.1754 34.0853C50.077 34.15 49.9567 34.1722 49.8413 34.1473C49.7262 34.122 49.6262 34.0516 49.5637 33.9516C47.5679 30.7539 44.1282 28.8446 40.3621 28.8446C38.7384 28.8446 37.1794 29.1943 35.7284 29.8838C35.6095 29.9402 35.4716 29.9402 35.353 29.8838C33.9006 29.1943 32.3413 28.8446 30.7182 28.8446C26.9524 28.8446 23.5124 30.7539 21.5166 33.9516C21.4541 34.0516 21.3541 34.1223 21.239 34.1473C21.1236 34.1722 21.0033 34.15 20.9049 34.0853C19.546 33.1911 17.9637 32.7184 16.3288 32.7184C11.7315 32.7184 7.99147 36.4585 7.99147 41.0557C7.99147 41.3791 8.01038 41.7047 8.04792 42.0234C8.06382 42.1587 8.01559 42.2938 7.91775 42.3886C7.81965 42.4835 7.68318 42.527 7.54835 42.507C7.27103 42.4654 6.98384 42.4443 6.69445 42.4443C3.48575 42.4443 0.875275 45.0553 0.875275 48.2648C0.875275 51.4744 3.48575 54.084 6.69445 54.084C7.24143 54.084 7.77991 54.0089 8.29538 53.8612C8.40828 53.8292 8.52913 53.8431 8.63135 53.901C8.73356 53.9588 8.8081 54.055 8.83852 54.1684C9.82971 57.8553 13.1916 60.4302 17.0139 60.4302C18.4918 60.4302 19.9455 60.0438 21.2184 59.3129C21.4155 59.2 21.6667 59.2565 21.7961 59.4433C23.8248 62.3747 27.1601 64.125 30.7182 64.125C32.3413 64.125 33.9006 63.7753 35.353 63.0856C35.4124 63.0574 35.4766 63.0434 35.5407 63.0434Z" fill="#650000"></path><g opacity="0.3"><path d="M56.6005 32.4773C56.4177 34.059 55.7668 35.561 54.7091 36.7764C52.0202 39.8634 46.3065 44.3998 35.9441 44.3976C25.5825 44.3998 19.8688 39.8634 17.1799 36.7764C16.0915 35.5259 15.4352 33.9749 15.2743 32.3438C15.6199 32.3022 15.9723 32.2813 16.3288 32.2813C18.1076 32.2813 19.7636 32.8108 21.1453 33.7198C23.1361 30.53 26.6805 28.4075 30.7182 28.4075C32.4433 28.4075 34.0776 28.7948 35.5402 29.4883C37.0016 28.7948 38.6371 28.4075 40.3621 28.4075C44.3998 28.4075 47.9442 30.5297 49.9351 33.7198C51.3168 32.8108 52.9728 32.2813 54.7515 32.2813C55.3859 32.2813 56.0042 32.3493 56.6002 32.4773H56.6005Z" fill="#650000"></path></g><path d="M63.8049 48.2536C62.3884 51.02 60.3863 49.9491 60.3863 49.9491C58.3636 51.5319 56.4547 49.4054 56.4547 49.4054C56.4547 49.4054 55.4755 49.8134 54.4408 49.5344C52.9289 49.1286 52.4126 47.6332 52.0484 45.3743C51.9687 44.8843 51.7018 42.7216 50.0619 40.7088C48.7065 39.0459 46.4148 37.485 42.5193 37.0507L51.7738 29.296C53.6038 29.5015 55.2086 29.9106 56.6078 30.4795C65.38 34.036 66.0923 43.7893 63.8049 48.2536Z" fill="#D8A090"></path><path d="M58.8015 50.9715C57.7799 50.9715 56.8772 50.4188 56.3338 49.9069C55.9277 50.0241 55.1475 50.1782 54.3267 49.9576C52.4156 49.444 51.9396 47.4466 51.616 45.4447L51.6025 45.3589C51.1997 42.7537 49.4774 38.2666 42.4708 37.4859C42.2307 37.459 42.0576 37.2428 42.0844 37.0025C42.1113 36.7624 42.3275 36.5903 42.5678 36.6161C46.2325 37.0244 48.9715 38.4431 50.7089 40.8327C52.0796 42.7178 52.3715 44.6051 52.4674 45.2252L52.48 45.305C52.8856 47.8138 53.4282 48.8102 54.5539 49.1124C55.4254 49.3464 56.279 49.0045 56.2875 49.0009C56.4588 48.931 56.6569 48.9754 56.7802 49.113C56.8468 49.1861 58.4455 50.9118 60.1172 49.6049C60.2536 49.498 60.4402 49.4821 60.5932 49.5638C60.6132 49.5742 61.1656 49.8512 61.8441 49.6328C62.45 49.438 62.9789 48.9066 63.4157 48.0538C64.7848 45.3817 65.0424 40.5756 62.8863 36.5599C61.4328 33.8527 58.3165 30.4705 51.7253 29.7303C51.4853 29.7035 51.3123 29.487 51.3395 29.2467C51.3663 29.0066 51.5831 28.834 51.8231 28.8608C58.7914 29.6432 62.1047 33.2542 63.6574 36.1458C66.0632 40.6266 65.6223 45.6664 64.1948 48.4528C63.6435 49.529 62.9359 50.2086 62.0916 50.4725C61.3933 50.6909 60.7814 50.5599 60.4476 50.4462C59.8894 50.8235 59.3296 50.9712 58.8015 50.9712V50.9715Z" fill="#650000"></path><path d="M29.3529 37.051C25.463 37.4853 23.1723 39.0418 21.8158 40.7025C20.1705 42.7175 19.9025 44.8835 19.8238 45.3746C19.4586 47.6334 18.9434 49.1289 17.4315 49.5347C16.3956 49.8137 15.4176 49.4056 15.4176 49.4056C15.4176 49.4056 13.5087 51.5322 11.4849 49.9493C11.4849 49.9493 9.48415 51.0203 8.06628 48.2539C5.7778 43.7862 6.49221 34.0231 15.2806 30.4721C16.6754 29.9076 18.2747 29.5007 20.0971 29.2963L29.3527 37.051H29.3529Z" fill="#D8A090"></path><g opacity="0.3"><path d="M29.3529 37.051C25.463 37.4853 23.1723 39.0418 21.8158 40.7025C20.1705 42.7175 19.9025 44.8835 19.8238 45.3746C19.4586 47.6334 18.9434 49.1289 17.4315 49.5347C16.3956 49.8137 15.4176 49.4056 15.4176 49.4056C15.4176 49.4056 13.5087 51.5322 11.4849 49.9493C11.4849 49.9493 9.48415 51.0203 8.06628 48.2539C7.70757 47.5537 7.42202 46.7234 7.23157 45.8078C7.29295 45.9467 7.35625 46.0802 7.42312 46.2104C8.84071 48.9768 10.8417 47.9058 10.8417 47.9058C12.8655 49.4887 14.7744 47.3621 14.7744 47.3621C14.7744 47.3621 15.7525 47.7702 16.7883 47.4912C18.3002 47.0854 18.8154 45.59 19.1807 43.3311C19.1812 43.327 19.1821 43.3228 19.1826 43.3187C19.5454 41.0234 18.8724 38.6765 17.3257 36.9419C17.2761 36.8863 17.2273 36.8309 17.1797 36.7764C15.8396 35.2371 15.1548 33.2407 15.2422 31.2016C15.2532 30.9545 15.2663 30.7106 15.2806 30.4719C16.6754 29.9074 18.2747 29.5004 20.0971 29.296L27.1998 35.247L29.3527 37.051H29.3529Z" fill="#650000"></path></g><g opacity="0.3"><path d="M42.5193 37.051C46.4093 37.4853 48.7 39.0418 50.0564 40.7025C51.7018 42.7175 51.9698 44.8835 52.0484 45.3746C52.4137 47.6334 52.9289 49.1289 54.4408 49.5347C55.4766 49.8137 56.4547 49.4056 56.4547 49.4056C56.4547 49.4056 58.3636 51.5322 60.3874 49.9493C60.3874 49.9493 62.3881 51.0203 63.806 48.2539C64.1647 47.5537 64.4502 46.7234 64.6407 45.8078C64.5793 45.9467 64.516 46.0802 64.4491 46.2104C63.0315 48.9768 61.0305 47.9058 61.0305 47.9058C59.0068 49.4887 57.0978 47.3621 57.0978 47.3621C57.0978 47.3621 56.1198 47.7702 55.0839 47.4912C53.5721 47.0854 53.0569 45.59 52.6916 43.3311C52.691 43.327 52.6902 43.3228 52.6897 43.3187C52.3268 41.0234 52.9999 38.6765 54.5465 36.9419C54.5961 36.8863 54.6449 36.8309 54.6926 36.7764C56.0326 35.2371 56.7175 33.2407 56.63 31.2016C56.6191 30.9545 56.6059 30.7106 56.5917 30.4719C55.1968 29.9074 53.5975 29.5004 51.7752 29.296L44.6724 35.247L42.5196 37.051H42.5193Z" fill="#650000"></path></g><path d="M13.0705 50.9715C12.5424 50.9715 11.9828 50.8238 11.4243 50.4464C11.0906 50.5599 10.4786 50.6912 9.78039 50.4727C8.93608 50.2088 8.22852 49.5295 7.67716 48.4531C6.24942 45.6667 5.80877 40.6266 8.21454 36.1461C9.76724 33.2544 13.0806 29.6432 20.0488 28.8611C20.2894 28.8334 20.5054 29.0069 20.5325 29.2469C20.5594 29.487 20.3867 29.7037 20.1467 29.7306C13.5555 30.4705 10.4392 33.8529 8.98568 36.5602C6.82956 40.5759 7.08715 45.3822 8.45624 48.0541C8.89662 48.9135 9.4299 49.4462 10.0418 49.6375C10.7171 49.8485 11.2736 49.5668 11.2791 49.5638C11.432 49.4821 11.6186 49.4983 11.7551 49.6049C13.4267 50.912 15.0257 49.1861 15.0929 49.1122C15.2173 48.9751 15.4154 48.9302 15.5861 49.0014C15.5933 49.0045 16.4472 49.3465 17.3183 49.1124C18.4441 48.8099 18.9867 47.8135 19.3922 45.305L19.4048 45.2252C19.5008 44.6051 19.7926 42.718 21.1633 40.8327C22.901 38.4431 25.64 37.0244 29.3044 36.6161C29.5445 36.5898 29.761 36.7624 29.7878 37.0025C29.8147 37.2425 29.6415 37.459 29.4015 37.4859C22.3949 38.2666 20.6725 42.7537 20.2697 45.3589L20.2563 45.4447C19.9326 47.4466 19.4569 49.4443 17.5455 49.9576C16.7248 50.1784 15.9446 50.0241 15.5385 49.9069C14.9953 50.4185 14.0924 50.9712 13.0708 50.9715H13.0705Z" fill="#650000"></path><path d="M58.9695 8.85555C58.9495 8.76457 58.9254 8.67578 58.8966 8.58918L58.9218 8.5848L58.9695 8.85555Z" fill="#4DA2FF"></path><path d="M26.3415 11.9431C26.3415 11.9431 25.7562 4.4874 20.5881 3.85218C16.4225 3.34028 12.8855 6.18725 13.3388 10.3348C13.9216 15.6706 18.985 17.0964 18.985 17.0964L26.3418 11.9431H26.3415Z" fill="#D8A090"></path><g opacity="0.3"><path d="M26.3416 11.9431L18.985 17.0967C18.985 17.0967 13.9214 15.6703 13.3393 10.3351C13.2694 9.69081 13.2944 9.07807 13.404 8.50396C13.4169 8.58124 13.4306 8.65769 13.4451 8.73333C14.2428 12.851 19.0766 14.732 22.5122 12.326L25.9763 9.89963C26.2728 11.0722 26.3416 11.9431 26.3416 11.9431Z" fill="#650000"></path></g><path d="M18.985 17.534C18.9458 17.534 18.9058 17.5285 18.8664 17.5176C18.8129 17.5025 13.5117 15.9474 12.9036 10.3825C12.6893 8.41983 13.3081 6.61173 14.6462 5.29142C16.1413 3.81628 18.3265 3.1331 20.6413 3.4181C26.1015 4.08922 26.7526 11.5902 26.7775 11.9091C26.7964 12.15 26.6167 12.3605 26.3758 12.3794C26.1349 12.3991 25.9245 12.2188 25.905 11.9779C25.8993 11.907 25.2846 4.8705 20.5344 4.2868C18.4868 4.03551 16.5642 4.62853 15.2606 5.91458C14.1168 7.04307 13.5884 8.59631 13.7734 10.2877C14.316 15.2557 18.9086 16.6201 19.104 16.6757C19.3361 16.7418 19.4712 16.9838 19.4054 17.2159C19.3509 17.4085 19.1755 17.5343 18.9847 17.5343L18.985 17.534Z" fill="#650000"></path><path d="M23.4505 11.6104C23.4505 11.6104 23.1246 7.46015 20.2478 7.10664C17.9292 6.82164 15.9602 8.4064 16.2126 10.7152C16.5371 13.6852 19.3555 14.4788 19.3555 14.4788" fill="#FFA1A8"></path><path d="M23.4504 11.611L20.0247 14.0102L19.3552 14.4791C19.3552 14.4791 16.5365 13.6849 16.2123 10.7149C15.9605 8.40668 17.9289 6.82137 20.248 7.10637C21.0652 7.20722 21.6766 7.61361 22.1323 8.14497C23.2838 9.48255 23.4502 11.6113 23.4502 11.6113L23.4504 11.611Z" fill="#FF929F"></path><path d="M19.3555 14.9167C19.3163 14.9167 19.2766 14.9112 19.2368 14.9003C19.1102 14.8646 16.1301 13.9896 15.7777 10.7628C15.6519 9.61025 16.0164 8.54726 16.8042 7.76981C17.6789 6.90687 18.954 6.50678 20.3012 6.67257C23.4962 7.06526 23.8722 11.3923 23.8867 11.5765C23.9056 11.8173 23.7256 12.0281 23.4847 12.047C23.2444 12.067 23.0334 11.8861 23.0142 11.6455C23.0109 11.6044 22.6785 7.84682 20.1943 7.54127C19.1138 7.40863 18.1021 7.71884 17.4186 8.39297C16.825 8.97859 16.551 9.78673 16.6475 10.668C16.9347 13.2977 19.3714 14.0285 19.4753 14.0584C19.7071 14.125 19.8416 14.367 19.7756 14.5988C19.7208 14.7912 19.546 14.9167 19.3555 14.917V14.9167Z" fill="#650000"></path><path d="M45.3537 11.9431C45.3537 11.9431 45.939 4.4874 51.1071 3.85218C55.2727 3.34028 58.8097 6.18725 58.3565 10.3348C57.7736 15.6706 52.7102 17.0964 52.7102 17.0964L45.3534 11.9431H45.3537Z" fill="#D37C59"></path><path d="M45.3537 11.9431C45.3537 11.9431 45.939 4.4874 51.1071 3.85218C55.2727 3.34028 58.8097 6.18725 58.3565 10.3348C57.7736 15.6706 52.7102 17.0964 52.7102 17.0964L45.3534 11.9431H45.3537Z" fill="#D8A090"></path><g opacity="0.3"><path d="M58.3562 10.3351C57.7742 15.67 52.7105 17.0967 52.7105 17.0967L45.354 11.9431C45.354 11.9431 45.4228 11.0722 45.7193 9.89963L49.1834 12.3257C52.619 14.7317 57.4527 12.8507 58.2504 8.73305C58.265 8.65742 58.2787 8.58096 58.2915 8.50368C58.4009 9.07807 58.4261 9.69054 58.3562 10.3348V10.3351Z" fill="#650000"></path></g><path d="M52.7102 17.534C52.5192 17.534 52.3436 17.408 52.2893 17.2151C52.2238 16.9824 52.3592 16.7407 52.5919 16.6752C52.7864 16.6198 57.379 15.2554 57.9216 10.2874C58.1066 8.59604 57.5782 7.04279 56.4344 5.91431C55.1308 4.62825 53.2082 4.03524 51.1606 4.28653C46.4104 4.87023 45.7955 11.9067 45.79 11.9777C45.7708 12.2185 45.5598 12.3986 45.3192 12.3791C45.0783 12.3599 44.8985 12.1497 44.9174 11.9089C44.9424 11.5899 45.5935 4.08895 51.0537 3.41783C53.3685 3.13338 55.5536 3.81628 57.0488 5.29115C58.3869 6.61146 59.006 8.41956 58.7914 10.3822C58.1833 15.9471 52.8823 17.5022 52.8289 17.5173C52.7892 17.5286 52.7491 17.5338 52.71 17.5338L52.7102 17.534Z" fill="#650000"></path><path d="M48.2448 11.6104C48.2448 11.6104 48.5706 7.46015 51.4475 7.10664C53.7661 6.82164 55.7351 8.4064 55.4827 10.7152C55.1582 13.6852 52.3397 14.4788 52.3397 14.4788" fill="#FFA1A8"></path><path d="M48.2448 11.611L51.6706 14.0102L52.34 14.4791C52.34 14.4791 55.1588 13.6849 55.483 10.7149C55.7348 8.40668 53.7664 6.82137 51.4472 7.10637C50.63 7.20722 50.0187 7.61361 49.5629 8.14497C48.4114 9.48255 48.2451 11.6113 48.2451 11.6113L48.2448 11.611Z" fill="#FF929F"></path><path d="M52.3397 14.9167C52.1487 14.9167 51.9731 14.7906 51.9188 14.5977C51.8533 14.3651 51.9887 14.1234 52.2213 14.0579C52.3238 14.0283 54.7606 13.2977 55.0478 10.6678C55.1442 9.78645 54.8702 8.97832 54.2766 8.3927C53.5934 7.71857 52.5817 7.40836 51.5009 7.54099C49.0157 7.84654 48.6841 11.6072 48.6811 11.6452C48.6616 11.8859 48.4498 12.0648 48.2103 12.0464C47.9697 12.0273 47.7899 11.8171 47.8088 11.5762C47.8233 11.3923 48.1993 7.06499 51.3943 6.6723C52.7426 6.50623 54.0168 6.9066 54.8913 7.76954C55.6791 8.54698 56.0439 9.60997 55.9178 10.7626C55.5654 13.9891 52.5853 14.8644 52.4587 14.9C52.4189 14.9112 52.3789 14.9164 52.3397 14.9164V14.9167Z" fill="#650000"></path><path d="M35.9444 41.1157C46.3063 41.1179 52.0205 36.5813 54.7093 33.4942C56.0497 31.9555 56.7342 29.9591 56.646 27.9203C56.381 21.798 54.7677 18.1819 51.6634 13.4791C44.2091 2.18631 27.6802 2.18631 20.2259 13.4791C17.1216 18.1819 15.5083 21.798 15.2433 27.9203C15.1551 29.9591 15.8396 31.9555 17.1799 33.4942C19.8685 36.5813 25.5827 41.1179 35.9446 41.1157H35.9444Z" fill="#D8A090"></path><path d="M35.9518 41.5534C35.9474 41.5534 35.9424 41.5534 35.9372 41.5534C25.2183 41.5534 19.378 36.6846 16.8497 33.7817C15.4376 32.1605 14.712 30.0721 14.806 27.9014C15.0789 21.5985 16.793 17.8853 19.8606 13.2379C23.4425 7.81147 29.4552 4.5718 35.9444 4.5718C42.4336 4.5718 48.4465 7.81147 52.0284 13.2379C55.096 17.8853 56.8101 21.5985 57.083 27.9014C57.177 30.0723 56.4511 32.1605 55.0393 33.7817C52.511 36.6846 46.6696 41.5534 35.9518 41.5534ZM35.9444 40.6784C35.9466 40.6789 35.9496 40.6784 35.9518 40.6784C46.3243 40.6787 51.9487 35.9976 54.3794 33.207C55.6432 31.7557 56.293 29.8849 56.2089 27.9395C55.9447 21.8402 54.2791 18.2367 51.2981 13.7203C47.8784 8.53986 42.1387 5.44707 35.9444 5.44707C29.75 5.44707 24.0103 8.53986 20.5909 13.7203C17.6099 18.2364 15.9443 21.84 15.6801 27.9395C15.5957 29.8852 16.2455 31.7557 17.5096 33.207C19.94 35.9976 25.566 40.6784 35.9372 40.6784H35.9444Z" fill="#650000"></path><g opacity="0.3"><path d="M54.7091 33.4937C52.0207 36.5807 46.3065 41.1185 35.9441 41.1163C25.5827 41.1185 19.8688 36.581 17.1794 33.4937C15.8396 31.9555 15.1548 29.9586 15.2436 27.9198C15.2469 27.8474 15.2502 27.7751 15.2535 27.7027C15.3686 29.4259 16.0345 31.0726 17.1794 32.3871C19.8688 35.4741 25.583 39.3542 35.9441 39.352C46.3065 39.3542 52.0205 35.4741 54.7091 32.3871C55.854 31.0726 56.5199 29.4259 56.6361 27.7027C56.6394 27.7751 56.6427 27.8474 56.6459 27.9198C56.7347 29.9586 56.0499 31.9555 54.7091 33.4937Z" fill="#650000"></path></g><path d="M41.2366 30.77C41.2366 33.084 38.8623 34.9595 35.9337 34.9595C33.005 34.9595 30.6308 33.0837 30.6308 30.77C30.6308 28.4563 33.005 27.3591 35.9337 27.3591C38.8623 27.3591 41.2366 28.4561 41.2366 30.77Z" fill="#F9D9C2"></path><path d="M38.9875 31.1838C38.816 32.1276 36.7933 33.1114 35.9337 30.9312H35.9339C35.0743 33.1114 33.0516 32.1276 32.8801 31.1838" fill="#F9D9C2"></path><path d="M30.7461 6.36428C30.7461 6.36428 33.7622 2.11259 37.3962 1.49491C40.3911 0.98575 37.6143 4.20212 37.6143 4.20212C37.6143 4.20212 40.4172 2.02106 41.7024 2.96649C42.9742 3.90205 40.2306 5.2558 41.0302 6.21876C41.0302 6.21876 42.929 7.70596 35.9443 8.684C28.9597 9.66204 30.7461 6.364 30.7461 6.364V6.36428Z" fill="#D8A090"></path><g opacity="0.5"><path d="M41.0121 6.19465C40.5232 5.55477 41.5481 4.74855 41.9189 4.00674C42.3968 4.65757 41.3829 5.46269 41.0121 6.19465Z" fill="white"></path></g><path d="M30.7459 6.80164C30.6582 6.80164 30.5699 6.77533 30.4929 6.7208C30.2959 6.58104 30.2496 6.30783 30.3893 6.11079C30.5168 5.93102 33.5536 1.70373 37.323 1.06303C37.665 1.00493 38.7055 0.828179 39.0988 1.5256C39.301 1.88432 39.2281 2.34689 39.0407 2.80453C40.0017 2.34141 41.1623 2.02572 41.9616 2.6138C42.2546 2.8292 42.4256 3.09173 42.4705 3.39399C42.5547 3.96125 42.1762 4.46739 41.8101 4.95655C41.3974 5.50818 41.2357 5.78113 41.367 5.93897C41.5213 6.12477 41.4958 6.40072 41.31 6.55528C41.1242 6.70984 40.8482 6.68408 40.6937 6.49801C40.0996 5.7825 40.6833 5.00204 41.1094 4.43231C41.3437 4.11882 41.6355 3.72886 41.6049 3.52224C41.5955 3.45921 41.541 3.3907 41.4432 3.31863C40.6139 2.70862 38.543 4.03469 37.8829 4.54714C37.7053 4.68498 37.4521 4.66579 37.2973 4.50302C37.1424 4.33996 37.1361 4.08621 37.283 3.91603C37.9418 3.15174 38.4636 2.18055 38.3364 1.95557C38.317 1.92131 38.1136 1.81608 37.4694 1.92597C34.0598 2.50556 31.132 6.57638 31.1027 6.61749C31.0172 6.73752 30.8823 6.80164 30.7456 6.80164H30.7459Z" fill="#650000"></path><path d="M25.1426 25.9475C25.1807 25.967 25.2361 26.0086 25.2849 26.0385L25.4356 26.1374C25.5383 26.2007 25.6378 26.2662 25.7414 26.3243C25.9461 26.443 26.1505 26.5496 26.3541 26.6364C26.7608 26.814 27.1568 26.9094 27.5268 26.9058C27.7125 26.9036 27.894 26.8746 28.0776 26.8233C28.1705 26.8036 28.2609 26.7625 28.3554 26.7318C28.4467 26.6866 28.5426 26.6537 28.6355 26.5986C29.0129 26.4016 29.391 26.1163 29.7922 25.7998L29.8032 25.791C30.0104 25.6274 30.311 25.6628 30.4746 25.8702C30.5891 26.0155 30.6058 26.2068 30.5346 26.3643C30.2943 26.8932 29.9232 27.3824 29.4157 27.7759C28.9186 28.1743 28.2302 28.435 27.5358 28.435C26.8392 28.4352 26.1911 28.1935 25.6743 27.8526C25.4145 27.68 25.1799 27.4843 24.9727 27.2673C24.8711 27.1566 24.7705 27.047 24.6812 26.9272C24.6365 26.8672 24.5921 26.8072 24.5499 26.7447C24.5071 26.6784 24.4712 26.6233 24.4238 26.5411C24.2956 26.3186 24.3718 26.0338 24.5946 25.9056C24.7351 25.8245 24.9004 25.8253 25.0355 25.8927L25.1432 25.9475H25.1426Z" fill="#650000"></path><path d="M47.4429 26.5414C47.3955 26.6236 47.3599 26.6789 47.3169 26.745C47.2747 26.8074 47.2303 26.8672 47.1856 26.9275C47.096 27.0472 46.9957 27.1568 46.894 27.2676C46.6869 27.4846 46.4523 27.6803 46.1925 27.8529C45.6754 28.1938 45.0276 28.4355 44.331 28.4352C43.6366 28.4352 42.9482 28.1746 42.4511 27.7762C41.9436 27.3824 41.5725 26.8932 41.3322 26.3646C41.2229 26.1243 41.3292 25.8406 41.5698 25.7316C41.738 25.6551 41.9274 25.6842 42.0633 25.791L42.0746 25.8001C42.4755 26.1166 42.8539 26.4019 43.2313 26.5989C43.3239 26.6537 43.4201 26.6869 43.5113 26.7321C43.6059 26.7628 43.696 26.8039 43.7892 26.8236C43.9728 26.8749 44.1542 26.9039 44.34 26.9061C44.71 26.9097 45.106 26.8143 45.5126 26.6367C45.7162 26.5499 45.9207 26.443 46.1254 26.3246C46.229 26.2665 46.3282 26.201 46.4312 26.1377L46.5822 26.0388C46.631 26.0089 46.6863 25.9672 46.7244 25.9478L46.8294 25.8944C47.0585 25.7776 47.3385 25.8689 47.4553 26.098C47.529 26.2427 47.518 26.4101 47.4438 26.5416L47.4429 26.5414Z" fill="#650000"></path><path d="M38.004 29.2741C38.004 30.4176 35.9337 30.9312 35.9337 30.9312C35.9337 30.9312 33.8633 30.4173 33.8633 29.2741C33.8633 28.6873 35.9342 28.6873 35.9342 28.6873C35.9342 28.6873 38.0043 28.6873 38.0043 29.2741H38.004Z" fill="#650000"></path><path d="M38.9875 31.1838C38.816 32.1276 36.7933 33.1114 35.9337 30.9312H35.9339C35.0743 33.1114 33.0516 32.1276 32.8801 31.1838" fill="#F9D9C2"></path><path d="M35.9342 30.9314V30.9325L35.9331 30.9314H35.9342Z" fill="#F9D9C2"></path><path d="M39.2029 31.223C39.1684 31.4422 39.0741 31.6363 38.9527 31.7979C38.8313 31.961 38.6847 32.0997 38.5214 32.2145C38.1945 32.4408 37.7919 32.5809 37.3647 32.5661C36.9369 32.5556 36.5124 32.3586 36.2083 32.0739C35.8953 31.7911 35.6898 31.4411 35.5267 31.0917C35.4286 30.881 35.5199 30.6305 35.7306 30.5324C35.7947 30.5026 35.8627 30.4902 35.9287 30.4935H35.9339V30.4938L35.9833 30.4965C36.2143 30.5086 36.3919 30.7059 36.3795 30.9372C36.3765 30.992 36.3625 31.0452 36.3409 31.092C36.1781 31.4414 35.9723 31.7914 35.6594 32.0742C35.3549 32.3589 34.9307 32.5559 34.5029 32.5663C34.0757 32.5814 33.6731 32.4411 33.3462 32.2147C33.1829 32.0996 33.0363 31.9613 32.9149 31.7982C32.7935 31.6365 32.6992 31.4422 32.6647 31.2233C32.6458 31.1041 32.7272 30.992 32.8466 30.9734C32.9576 30.9558 33.0623 31.0252 33.0916 31.1312L33.0955 31.1452C33.1612 31.3883 33.3873 31.6146 33.6392 31.753C33.8951 31.8925 34.1886 31.9525 34.4509 31.9125C34.7145 31.8744 34.9417 31.7363 35.1203 31.5313C35.3023 31.3293 35.43 31.0569 35.5273 30.7714L35.9342 31.3693L36.3412 30.7714C36.4385 31.0569 36.5662 31.3293 36.7481 31.5313C36.9268 31.7363 37.154 31.8741 37.4176 31.9125C37.6798 31.9525 37.9733 31.8925 38.2293 31.753C38.4811 31.6146 38.7072 31.3883 38.773 31.1452L38.7765 31.1323C38.808 31.0158 38.9281 30.9468 39.0448 30.9783C39.1533 31.0076 39.2205 31.1148 39.2038 31.2236L39.2029 31.223Z" fill="#650000"></path><path d="M47.5838 21.2138C47.7915 20.9154 46.3399 17.4724 43.8366 18.1081C42.9197 18.3411 43.0397 19.147 43.5538 19.4205C44.043 19.6808 44.816 19.6937 45.4455 19.9858C46.6724 20.5558 47.3761 21.5122 47.5838 21.2138Z" fill="#650000"></path><path d="M24.2824 21.2138C24.0747 20.9154 25.5263 17.4724 28.0296 18.1081C28.9466 18.3411 28.8265 19.147 28.3124 19.4205C27.8233 19.6808 27.0502 19.6937 26.4208 19.9858C25.1939 20.5558 24.4902 21.5122 24.2824 21.2138Z" fill="#650000"></path><path d="M21.1779 59.3392C21.259 59.2822 21.362 59.2044 21.4527 59.1279C21.547 59.0526 21.6377 58.9698 21.7301 58.8895C21.9106 58.7235 22.0869 58.5505 22.2551 58.3697C22.5925 58.0082 22.9035 57.6185 23.1767 57.2031C23.4518 56.7893 23.6998 56.3544 23.8991 55.8962C24.1117 55.4432 24.2605 54.9637 24.3962 54.48L24.3992 54.4688C24.4318 54.3526 24.5524 54.2846 24.6688 54.3172C24.7798 54.3484 24.8464 54.4603 24.8239 54.5712C24.7187 55.0878 24.5968 55.6057 24.406 56.1015C24.229 56.6021 23.9985 57.0839 23.7355 57.5473C23.4746 58.0123 23.1709 58.4538 22.8342 58.8706C22.6662 59.0794 22.488 59.2808 22.3028 59.4768C22.2074 59.573 22.1143 59.6705 22.0137 59.7634C21.9131 59.8596 21.8175 59.9454 21.6944 60.0454C21.5067 60.198 21.2308 60.1695 21.0784 59.9818C20.9258 59.7941 20.9543 59.5182 21.142 59.3655C21.1496 59.3592 21.1573 59.3535 21.1653 59.3477L21.1776 59.3389L21.1779 59.3392Z" fill="#650000"></path><path d="M32.9697 51.8838C33.0757 51.6399 33.1599 51.3801 33.3026 51.1504C33.37 51.0337 33.4292 50.9104 33.5076 50.7999L33.7436 50.4678C33.8192 50.3538 33.9192 50.2604 34.0072 50.156L34.1439 50.003C34.1894 49.9518 34.2428 49.9091 34.2922 49.8616C34.3936 49.7701 34.4917 49.6737 34.5969 49.5857L34.9279 49.341C35.8279 48.7096 36.929 48.3572 38.038 48.3465C38.5913 48.3421 39.1498 48.4109 39.6784 48.577L39.8781 48.6334L40.0708 48.7107C40.1988 48.7633 40.3273 48.814 40.4536 48.8691C40.7024 48.9886 40.9447 49.1217 41.1727 49.2766C42.0888 49.8896 42.8016 50.7912 43.1614 51.8018C43.2022 51.9161 43.1425 52.0416 43.0282 52.0824C42.9274 52.1183 42.8177 52.0761 42.7654 51.9873L42.7646 51.9857C42.2623 51.134 41.5706 50.4281 40.7493 49.9474C40.5419 49.8312 40.3328 49.7194 40.1135 49.6282L39.7795 49.5076L39.6126 49.4478L39.4413 49.4029C38.9892 49.2629 38.5145 49.2259 38.0454 49.2166L37.6919 49.2251L37.3408 49.2681C37.2227 49.2763 37.1087 49.3097 36.9931 49.3325C36.878 49.3582 36.7599 49.3741 36.6483 49.4144L36.3088 49.5188L35.9805 49.655C35.869 49.6967 35.7648 49.7539 35.6593 49.8088C35.5552 49.8658 35.4437 49.9115 35.3469 49.9814C34.9348 50.2234 34.5698 50.5385 34.2316 50.8822C33.8943 51.2302 33.6235 51.6363 33.3695 52.0613L33.3569 52.0827C33.295 52.186 33.1612 52.2197 33.0579 52.1578C32.9628 52.1008 32.9266 51.9827 32.9699 51.8838H32.9697Z" fill="#650000"></path><path d="M39.674 48.9061C40.0179 47.8595 40.7945 46.9396 41.7926 46.3943C42.2911 46.1221 42.8397 45.9295 43.4072 45.8566C43.9734 45.7755 44.5511 45.8029 45.1115 45.9161C46.2323 46.1553 47.2489 46.8083 47.9384 47.7028C48.629 48.5997 48.9685 49.7413 48.8948 50.8358C48.8866 50.9567 48.7822 51.048 48.6613 51.04C48.552 51.0326 48.467 50.9466 48.4577 50.8408V50.8361C48.3689 49.8416 47.9908 48.9017 47.3553 48.1774C47.0388 47.816 46.6636 47.5121 46.2553 47.2703C45.8448 47.0319 45.3981 46.8598 44.9352 46.7626L44.5845 46.7102C44.5264 46.699 44.4672 46.6962 44.408 46.6949L44.2307 46.6872C44.1126 46.6779 43.9945 46.682 43.8761 46.6864C43.7574 46.6853 43.6404 46.7045 43.5226 46.7149C43.0534 46.7732 42.5933 46.9081 42.165 47.1158C41.7353 47.3199 41.3322 47.5912 40.9823 47.9267C40.6307 48.2604 40.3279 48.6509 40.0747 49.0826L40.0722 49.0867C40.0108 49.1914 39.8762 49.2264 39.7716 49.165C39.6806 49.1116 39.6422 49.0031 39.674 48.9069V48.9061Z" fill="#650000"></path></g><path d="M104.356 15.32C104.916 15.32 105.303 15.72 105.516 16.52C105.356 19.2133 105.183 21.1333 104.996 22.28C104.809 23.4 104.649 24.3867 104.516 25.24C104.409 26.0933 104.329 26.68 104.276 27C104.249 27.32 104.143 27.9733 103.956 28.96C103.769 29.9467 103.569 30.9333 103.356 31.92C103.169 32.88 103.049 33.4533 102.996 33.64C102.969 33.8267 102.729 35.0267 102.276 37.24C101.823 39.4267 101.476 40.7733 101.236 41.28C101.023 41.76 100.636 42 100.076 42C99.5428 42 99.1161 41.84 98.7961 41.52C97.5694 39.84 96.4094 37.76 95.3161 35.28C95.0494 34.64 94.7428 33.9467 94.3961 33.2C94.0761 32.4533 93.8361 31.8933 93.6761 31.52L93.3161 30.68C92.7561 31.64 91.9828 33.2667 90.9961 35.56C90.0094 37.8533 89.1428 39.6933 88.3961 41.08C87.9161 41.6933 87.3828 42 86.7961 42C85.5694 42 84.6361 38.7333 83.9961 32.2C83.9961 32.1733 83.9694 32.0267 83.9161 31.76C83.8894 31.4933 83.8361 31.0267 83.7561 30.36C83.7028 29.6933 83.6228 28.96 83.5161 28.16C83.4361 27.3333 83.1028 23.96 82.5161 18.04C82.5161 17.5067 82.7161 17.0267 83.1161 16.6C83.5161 16.1467 83.9561 15.92 84.4361 15.92C85.0228 15.92 85.4228 16.3067 85.6361 17.08C86.3561 25.7467 87.0761 32.1467 87.7961 36.28C88.0094 35.9067 88.5561 34.68 89.4361 32.6C90.3161 30.4933 91.1161 28.8267 91.8361 27.6C92.5561 26.3467 93.2494 25.72 93.9161 25.72C94.3694 25.72 94.7561 25.96 95.0761 26.44C96.7561 31.2133 98.1961 34.5733 99.3961 36.52C99.4228 36.2267 99.5828 35.4267 99.8761 34.12L100.396 31.56C100.396 31.4 100.423 31.1733 100.476 30.88C100.556 30.5867 100.609 30.3067 100.636 30.04C100.689 29.7467 100.743 29.48 100.796 29.24L101.236 26.72C101.876 22.7733 102.276 19.5333 102.436 17C102.543 16.5467 102.783 16.16 103.156 15.84C103.556 15.4933 103.956 15.32 104.356 15.32ZM116.205 23.36C118.125 23.36 119.698 24.28 120.925 26.12C122.178 27.96 122.805 30.1733 122.805 32.76C122.805 35.32 122.165 37.5067 120.885 39.32C119.631 41.1333 117.951 42.04 115.845 42.04C113.765 42.04 112.085 41.12 110.805 39.28C109.525 37.4133 108.885 35.3467 108.885 33.08C108.885 30.1733 109.471 27.8533 110.645 26.12C111.898 24.28 113.751 23.36 116.205 23.36ZM115.725 26.64C114.605 26.64 113.685 27.2267 112.965 28.4C112.245 29.5733 111.885 30.8133 111.885 32.12C111.885 34.1467 112.285 35.6933 113.085 36.76C113.885 37.8267 114.791 38.36 115.805 38.36C117.618 38.36 118.778 37.5733 119.285 36C119.498 35.2533 119.605 34.32 119.605 33.2C119.605 28.8267 118.311 26.64 115.725 26.64ZM133.937 23.36C135.857 23.36 137.431 24.28 138.657 26.12C139.911 27.96 140.537 30.1733 140.537 32.76C140.537 35.32 139.897 37.5067 138.617 39.32C137.364 41.1333 135.684 42.04 133.577 42.04C131.497 42.04 129.817 41.12 128.537 39.28C127.257 37.4133 126.617 35.3467 126.617 33.08C126.617 30.1733 127.204 27.8533 128.377 26.12C129.631 24.28 131.484 23.36 133.937 23.36ZM133.457 26.64C132.337 26.64 131.417 27.2267 130.697 28.4C129.977 29.5733 129.617 30.8133 129.617 32.12C129.617 34.1467 130.017 35.6933 130.817 36.76C131.617 37.8267 132.524 38.36 133.537 38.36C135.351 38.36 136.511 37.5733 137.017 36C137.231 35.2533 137.337 34.32 137.337 33.2C137.337 28.8267 136.044 26.64 133.457 26.64ZM154.15 23.28L154.11 15.56C154.11 14.12 154.563 13.4 155.47 13.4C156.403 13.4 156.923 13.8 157.03 14.6C157.083 14.9467 157.15 17.04 157.23 20.88C157.31 24.72 157.43 28.32 157.59 31.68C157.777 35.04 157.87 38.1733 157.87 41.08C157.87 41.88 157.27 42.28 156.07 42.28C155.27 42.28 154.87 41.72 154.87 40.6C153.723 41.5067 152.363 41.96 150.79 41.96C148.79 41.96 147.163 41.2133 145.91 39.72C144.683 38.2267 144.07 36.3867 144.07 34.2C144.07 32.0133 144.51 29.9733 145.39 28.08C146.297 26.16 147.697 24.7867 149.59 23.96C150.763 23.4533 151.897 23.2 152.99 23.2C153.39 23.2 153.777 23.2267 154.15 23.28ZM154.35 28.76C154.163 28.1733 153.937 27.7333 153.67 27.44C153.403 27.12 153.11 26.9333 152.79 26.88C152.497 26.8 152.137 26.76 151.71 26.76C151.283 26.76 150.763 26.92 150.15 27.24C149.537 27.56 149.017 28.08 148.59 28.8C147.737 30.24 147.31 31.76 147.31 33.36C147.31 34.9333 147.617 36.2267 148.23 37.24C148.87 38.2267 149.763 38.72 150.91 38.72C152.083 38.72 153.003 38.1467 153.67 37C154.337 35.8533 154.67 34.3867 154.67 32.6C154.67 30.6 154.563 29.32 154.35 28.76ZM180.776 15.36C181.416 15.36 181.829 15.8267 182.016 16.76C182.149 21.1067 182.216 25.8533 182.216 31C182.216 36.12 182.189 39.08 182.136 39.88C182.083 40.68 181.909 41.24 181.616 41.56C181.323 41.88 180.789 42.04 180.016 42.04C179.323 42.04 178.976 41.6133 178.976 40.76V31.72C178.976 30.2533 178.949 28.7467 178.896 27.2C178.843 25.6533 178.816 24.68 178.816 24.28C177.909 25.8267 176.709 27.1067 175.216 28.12C173.723 29.1067 172.056 29.6 170.216 29.6C168.376 29.6 166.829 28.84 165.576 27.32C165.523 28.9467 165.496 30.88 165.496 33.12C165.496 35.3333 165.509 37.6667 165.536 40.12C165.536 40.7867 165.309 41.28 164.856 41.6C164.429 41.8933 163.936 42.04 163.376 42.04C162.656 42.04 162.296 41.6 162.296 40.72C162.323 38.32 162.336 34.52 162.336 29.32V17.96C162.336 17.5067 162.483 17.0667 162.776 16.64C163.096 16.2133 163.456 16 163.856 16C164.283 16 164.669 16.12 165.016 16.36C165.363 16.5733 165.549 16.9067 165.576 17.36C165.683 20.32 166.163 22.52 167.016 23.96C167.869 25.4 168.883 26.12 170.056 26.12C171.229 26.12 172.229 25.9333 173.056 25.56C173.909 25.16 174.603 24.7067 175.136 24.2C175.696 23.6933 176.229 22.9733 176.736 22.04C177.456 20.7067 178.149 19.0667 178.816 17.12C179.216 15.9467 179.869 15.36 180.776 15.36ZM198.325 23.32C199.498 23.32 200.085 24.32 200.085 26.32C200.085 26.5333 200.085 26.76 200.085 27L200.005 29.8C199.978 30.68 199.965 31.5467 199.965 32.4L200.565 41.44C200.565 42.1067 199.885 42.44 198.525 42.44C198.445 42.44 198.245 42.44 197.925 42.44C197.632 42.44 197.418 42.32 197.285 42.08C197.178 41.84 197.165 41.5467 197.245 41.2C197.352 40.8533 197.325 40.4667 197.165 40.04C195.938 41.3467 194.312 42 192.285 42C188.525 42 186.645 39.0933 186.645 33.28C186.645 30.0533 187.245 27.6133 188.445 25.96C189.672 24.3067 191.418 23.48 193.685 23.48C194.752 23.48 195.818 23.6667 196.885 24.04C197.232 23.56 197.712 23.32 198.325 23.32ZM194.165 26.96C192.645 26.96 191.512 27.4 190.765 28.28C190.018 29.16 189.645 30.7733 189.645 33.12C189.645 37.0667 190.712 39.04 192.845 39.04C193.405 39.04 194.018 38.7867 194.685 38.28C195.378 37.7733 195.858 37.2 196.125 36.56C196.632 35.12 196.885 33.5467 196.885 31.84C196.885 30.1333 196.672 28.8933 196.245 28.12C195.845 27.3467 195.152 26.96 194.165 26.96ZM209.589 36.16L209.629 40.28C209.629 40.76 209.403 41.2 208.949 41.6C208.523 42 208.096 42.2 207.669 42.2C207.056 42.2 206.669 41.72 206.509 40.76C206.483 40.5467 206.376 38.6 206.189 34.92C206.003 31.2133 205.643 28.3067 205.109 26.2C204.869 25.1867 204.749 24.5867 204.749 24.4C204.749 23.52 205.283 23.08 206.349 23.08C206.803 23.08 207.163 23.2533 207.429 23.6C207.696 23.9467 207.856 24.3067 207.909 24.68C207.989 25.0267 208.056 25.5067 208.109 26.12C208.163 26.7333 208.203 27.12 208.229 27.28C208.789 25.9467 209.629 24.9467 210.749 24.28C211.869 23.6133 213.096 23.28 214.429 23.28C216.616 23.28 217.709 23.84 217.709 24.96C217.709 25.52 217.509 25.9733 217.109 26.32C216.736 26.64 216.296 26.8 215.789 26.8C213.523 26.8 211.923 27.52 210.989 28.96C210.056 30.4 209.589 32.8 209.589 36.16ZM222.42 23.32L224.42 23.36C224.873 23.36 225.127 23.3467 225.18 23.32V15.12C225.207 14.6667 225.433 14.28 225.86 13.96C226.287 13.64 226.687 13.48 227.06 13.48C227.433 13.48 227.727 13.6 227.94 13.84C228.18 14.08 228.287 14.4533 228.26 14.96C228.233 15.4667 228.22 18.24 228.22 23.28L232.9 23.12C233.7 23.12 234.1 23.5867 234.1 24.52C234.1 25.2133 233.887 25.7333 233.46 26.08C233.06 26.4267 232.62 26.6133 232.14 26.64C231.687 26.6667 231.233 26.68 230.78 26.68L228.34 26.64C228.34 27.7333 228.447 29.8933 228.66 33.12C228.9 36.3467 229.087 38.44 229.22 39.4C229.353 40.3333 229.38 40.9467 229.3 41.24C229.22 41.5067 229.073 41.6933 228.86 41.8C228.513 41.96 228.047 42.04 227.46 42.04C226.873 42.04 226.527 41.72 226.42 41.08C225.887 37.5867 225.527 32.7867 225.34 26.68C225.1 26.7067 224.18 26.72 222.58 26.72C220.98 26.72 220.18 26.2533 220.18 25.32C220.18 23.9867 220.927 23.32 222.42 23.32ZM239.53 37.2C240.117 37.2 240.623 37.4133 241.05 37.84C241.477 38.2667 241.73 38.8533 241.81 39.6C241.81 40.1867 241.597 40.7333 241.17 41.24C240.743 41.72 240.237 41.96 239.65 41.96C239.09 41.96 238.583 41.8133 238.13 41.52C237.677 41.2 237.45 40.72 237.45 40.08C237.45 39.44 237.65 38.8 238.05 38.16C238.477 37.52 238.97 37.2 239.53 37.2Z" fill="#333333"></path><path opacity="0.8" d="M86.8989 54.03C87.7389 54.03 88.4529 54.3 89.0409 54.84C90.1929 55.872 90.7689 57.504 90.7689 59.736C90.7689 61.956 90.1329 63.702 88.8609 64.974C88.2009 65.61 87.4389 65.958 86.5749 66.018C85.4349 66.018 84.5469 65.628 83.9109 64.848C83.2749 64.068 82.8189 63.198 82.5429 62.238C82.2789 61.266 82.1469 60.33 82.1469 59.43C82.1469 57.894 82.5129 56.628 83.2449 55.632C84.0129 54.564 85.2309 54.03 86.8989 54.03ZM86.7729 55.524C85.1649 55.524 84.1629 56.286 83.7669 57.81C83.6469 58.218 83.5869 58.74 83.5869 59.376C83.5869 60.012 83.7069 60.75 83.9469 61.59C84.2709 62.718 84.7509 63.51 85.3869 63.966C85.7589 64.254 86.2089 64.398 86.7369 64.398C87.2649 64.398 87.7389 64.164 88.1589 63.696C88.5789 63.216 88.8669 62.61 89.0229 61.878C89.1789 61.146 89.2569 60.408 89.2569 59.664C89.2569 58.344 89.0649 57.324 88.6809 56.604C88.3089 55.884 87.6729 55.524 86.7729 55.524ZM94.3988 63.372L94.4168 65.226C94.4168 65.442 94.3148 65.64 94.1108 65.82C93.9188 66 93.7268 66.09 93.5348 66.09C93.2588 66.09 93.0848 65.874 93.0128 65.442C93.0008 65.346 92.9528 64.47 92.8688 62.814C92.7848 61.146 92.6228 59.838 92.3828 58.89C92.2748 58.434 92.2208 58.164 92.2208 58.08C92.2208 57.684 92.4608 57.486 92.9408 57.486C93.1448 57.486 93.3068 57.564 93.4268 57.72C93.5468 57.876 93.6188 58.038 93.6428 58.206C93.6788 58.362 93.7088 58.578 93.7328 58.854C93.7568 59.13 93.7748 59.304 93.7868 59.376C94.0388 58.776 94.4168 58.326 94.9208 58.026C95.4248 57.726 95.9768 57.576 96.5768 57.576C97.5608 57.576 98.0528 57.828 98.0528 58.332C98.0528 58.584 97.9628 58.788 97.7828 58.944C97.6148 59.088 97.4168 59.16 97.1888 59.16C96.1688 59.16 95.4488 59.484 95.0288 60.132C94.6088 60.78 94.3988 61.86 94.3988 63.372ZM104.169 65.262C103.737 65.766 103.191 66.018 102.531 66.018C101.871 66.018 101.301 65.814 100.821 65.406C99.8126 64.626 99.3086 63.432 99.3086 61.824C99.3086 60.564 99.6566 59.556 100.353 58.8C101.049 58.032 101.907 57.648 102.927 57.648C103.947 57.648 104.643 57.996 105.015 58.692C105.339 59.304 105.501 60.228 105.501 61.464L105.465 62.94C105.465 63.636 105.495 64.602 105.555 65.838C105.627 67.062 105.663 67.986 105.663 68.61C105.663 69.642 105.405 70.398 104.889 70.878C104.385 71.37 103.611 71.616 102.567 71.616C101.943 71.616 101.307 71.484 100.659 71.22C100.011 70.956 99.6866 70.65 99.6866 70.302C99.6866 70.05 99.7526 69.858 99.8846 69.726C100.029 69.594 100.191 69.528 100.371 69.528C100.551 69.528 100.953 69.66 101.577 69.924C102.213 70.188 102.669 70.32 102.945 70.32C103.809 70.32 104.241 69.612 104.241 68.196C104.241 66.78 104.217 65.802 104.169 65.262ZM104.151 61.464C104.151 60.588 104.019 59.976 103.755 59.628C103.503 59.268 103.101 59.088 102.549 59.088C101.997 59.088 101.553 59.34 101.217 59.844C100.881 60.348 100.713 60.99 100.713 61.77C100.713 62.538 100.869 63.15 101.181 63.606C101.505 64.062 101.997 64.29 102.657 64.29C103.317 64.29 103.743 64.008 103.935 63.444C104.079 62.988 104.151 62.328 104.151 61.464ZM112.04 57.594C112.568 57.594 112.832 58.044 112.832 58.944C112.832 59.04 112.832 59.142 112.832 59.25L112.796 60.51C112.784 60.906 112.778 61.296 112.778 61.68L113.048 65.748C113.048 66.048 112.742 66.198 112.13 66.198C112.094 66.198 112.004 66.198 111.86 66.198C111.728 66.198 111.632 66.144 111.572 66.036C111.524 65.928 111.518 65.796 111.554 65.64C111.602 65.484 111.59 65.31 111.518 65.118C110.966 65.706 110.234 66 109.322 66C107.63 66 106.784 64.692 106.784 62.076C106.784 60.624 107.054 59.526 107.594 58.782C108.146 58.038 108.932 57.666 109.952 57.666C110.432 57.666 110.912 57.75 111.392 57.918C111.548 57.702 111.764 57.594 112.04 57.594ZM110.168 59.232C109.484 59.232 108.974 59.43 108.638 59.826C108.302 60.222 108.134 60.948 108.134 62.004C108.134 63.78 108.614 64.668 109.574 64.668C109.826 64.668 110.102 64.554 110.402 64.326C110.714 64.098 110.93 63.84 111.05 63.552C111.278 62.904 111.392 62.196 111.392 61.428C111.392 60.66 111.296 60.102 111.104 59.754C110.924 59.406 110.612 59.232 110.168 59.232ZM114.751 65.442L114.553 58.134C114.553 57.906 114.631 57.72 114.787 57.576C114.943 57.432 115.099 57.36 115.255 57.36C115.639 57.36 115.861 57.522 115.921 57.846C115.969 58.17 115.993 58.506 115.993 58.854C116.641 58.002 117.451 57.576 118.423 57.576C119.911 57.576 120.655 59.274 120.655 62.67C120.655 62.982 120.655 63.456 120.655 64.092C120.655 64.716 120.619 65.172 120.547 65.46C120.463 65.82 120.205 66 119.773 66C119.485 66 119.341 65.808 119.341 65.424L119.359 64.416C119.359 63.024 119.311 62.076 119.215 61.572C119.131 61.056 119.047 60.648 118.963 60.348C118.759 59.7 118.429 59.376 117.973 59.376C117.373 59.376 116.953 59.592 116.713 60.024C116.449 60.492 116.293 61.044 116.245 61.68C116.161 62.796 116.119 63.978 116.119 65.226C116.119 65.466 116.029 65.658 115.849 65.802C115.669 65.946 115.453 66.018 115.201 66.018C114.901 66.018 114.751 65.826 114.751 65.442ZM123.394 54.624C123.61 54.624 123.814 54.726 124.006 54.93C124.198 55.134 124.294 55.35 124.294 55.578C124.294 55.794 124.186 56.016 123.97 56.244C123.766 56.472 123.55 56.586 123.322 56.586C123.094 56.586 122.884 56.49 122.692 56.298C122.512 56.106 122.422 55.86 122.422 55.56C122.422 54.984 122.734 54.672 123.358 54.624C123.37 54.624 123.382 54.624 123.394 54.624ZM124.15 64.056L124.168 65.316C124.168 65.544 124.078 65.736 123.898 65.892C123.718 66.036 123.526 66.108 123.322 66.108C123.022 66.108 122.866 65.958 122.854 65.658C122.698 61.83 122.62 59.712 122.62 59.304C122.62 58.896 122.638 58.398 122.674 57.81C122.698 57.594 122.836 57.486 123.088 57.486C123.724 57.486 124.084 57.744 124.168 58.26C124.204 58.524 124.222 58.734 124.222 58.89L124.15 60.024V64.056ZM125.979 61.788C125.979 60.984 126.189 60.252 126.609 59.592C127.041 58.932 127.587 58.44 128.247 58.116C128.907 57.78 129.549 57.612 130.173 57.612C130.797 57.612 131.295 57.69 131.667 57.846C132.051 57.99 132.243 58.188 132.243 58.44C132.243 58.68 132.171 58.926 132.027 59.178C131.895 59.418 131.715 59.538 131.487 59.538C131.403 59.538 131.169 59.472 130.785 59.34C130.413 59.196 130.173 59.124 130.065 59.124C129.369 59.124 128.775 59.382 128.283 59.898C127.791 60.402 127.545 61.074 127.545 61.914C127.545 62.754 127.677 63.384 127.941 63.804C128.217 64.212 128.685 64.416 129.345 64.416C129.609 64.416 130.059 64.266 130.695 63.966C131.343 63.654 131.745 63.498 131.901 63.498C132.057 63.498 132.183 63.546 132.279 63.642C132.375 63.738 132.423 63.858 132.423 64.002C132.423 64.29 132.237 64.596 131.865 64.92C131.505 65.232 131.055 65.496 130.515 65.712C129.975 65.916 129.489 66.018 129.057 66.018C128.097 66.018 127.341 65.64 126.789 64.884C126.249 64.128 125.979 63.096 125.979 61.788ZM140.238 65.964L137.916 65.91C137.784 65.406 137.706 63.138 137.682 59.106V57.828C137.682 56.808 137.778 56.034 137.97 55.506C138.162 54.966 138.564 54.534 139.176 54.21C139.488 54.054 139.92 53.976 140.472 53.976C141.036 53.976 141.468 54.012 141.768 54.084C142.572 54.252 143.118 54.564 143.406 55.02C143.706 55.476 143.856 56.088 143.856 56.856C143.856 57.924 143.574 58.71 143.01 59.214C143.298 59.25 143.586 59.394 143.874 59.646C144.162 59.898 144.396 60.156 144.576 60.42C144.888 60.9 145.044 61.554 145.044 62.382C145.044 63.678 144.648 64.602 143.856 65.154C143.076 65.694 141.87 65.964 140.238 65.964ZM139.122 57.198L139.158 59.25C139.182 59.25 139.386 59.226 139.77 59.178C140.154 59.118 140.478 59.058 140.742 58.998C141.954 58.71 142.56 58.02 142.56 56.928C142.56 56.388 142.398 55.992 142.074 55.74C141.762 55.488 141.348 55.362 140.832 55.362C140.184 55.362 139.746 55.476 139.518 55.704C139.422 55.8 139.344 55.884 139.284 55.956C139.224 56.016 139.182 56.118 139.158 56.262C139.134 56.406 139.116 56.508 139.104 56.568C139.104 56.628 139.104 56.742 139.104 56.91C139.116 57.078 139.122 57.174 139.122 57.198ZM143.172 61.032C143.052 60.9 142.866 60.78 142.614 60.672C142.362 60.564 141.996 60.51 141.516 60.51C141.048 60.51 140.244 60.588 139.104 60.744C139.104 62.616 139.134 63.882 139.194 64.542C140.598 64.542 141.582 64.452 142.146 64.272C142.71 64.08 143.088 63.852 143.28 63.588C143.484 63.312 143.586 63.024 143.586 62.724C143.586 62.412 143.58 62.196 143.568 62.076C143.568 61.944 143.532 61.77 143.46 61.554C143.4 61.326 143.304 61.152 143.172 61.032ZM151.503 57.594C152.031 57.594 152.295 58.044 152.295 58.944C152.295 59.04 152.295 59.142 152.295 59.25L152.259 60.51C152.247 60.906 152.241 61.296 152.241 61.68L152.511 65.748C152.511 66.048 152.205 66.198 151.593 66.198C151.557 66.198 151.467 66.198 151.323 66.198C151.191 66.198 151.095 66.144 151.035 66.036C150.987 65.928 150.981 65.796 151.017 65.64C151.065 65.484 151.053 65.31 150.981 65.118C150.429 65.706 149.697 66 148.785 66C147.093 66 146.247 64.692 146.247 62.076C146.247 60.624 146.517 59.526 147.057 58.782C147.609 58.038 148.395 57.666 149.415 57.666C149.895 57.666 150.375 57.75 150.855 57.918C151.011 57.702 151.227 57.594 151.503 57.594ZM149.631 59.232C148.947 59.232 148.437 59.43 148.101 59.826C147.765 60.222 147.597 60.948 147.597 62.004C147.597 63.78 148.077 64.668 149.037 64.668C149.289 64.668 149.565 64.554 149.865 64.326C150.177 64.098 150.393 63.84 150.513 63.552C150.741 62.904 150.855 62.196 150.855 61.428C150.855 60.66 150.759 60.102 150.567 59.754C150.387 59.406 150.075 59.232 149.631 59.232ZM153.566 53.832C153.566 53.352 153.866 53.112 154.466 53.112C154.742 53.112 154.904 53.28 154.952 53.616V56.316C154.952 56.82 154.958 57.324 154.97 57.828C155.21 57.756 155.516 57.72 155.888 57.72C157.052 57.72 157.952 58.11 158.588 58.89C159.224 59.67 159.542 60.648 159.542 61.824C159.542 63 159.164 63.996 158.408 64.812C157.664 65.616 156.704 66.018 155.528 66.018C154.352 66.018 153.764 65.688 153.764 65.028C153.764 64.356 153.728 62.664 153.656 59.952C153.596 57.228 153.566 55.188 153.566 53.832ZM157.202 59.628C156.77 59.292 156.314 59.124 155.834 59.124C155.57 59.124 155.3 59.172 155.024 59.268C155.096 60.252 155.132 61.998 155.132 64.506C155.336 64.578 155.546 64.614 155.762 64.614C156.23 64.614 156.698 64.44 157.166 64.092C157.862 63.612 158.21 62.88 158.21 61.896C158.21 60.9 157.874 60.144 157.202 59.628ZM166.69 57.684C166.846 57.684 166.996 57.738 167.14 57.846C167.296 57.954 167.374 58.074 167.374 58.206C167.374 58.554 166.864 60.438 165.844 63.858C164.824 67.278 164.068 69.678 163.576 71.058C163.468 71.382 163.3 71.544 163.072 71.544C162.844 71.544 162.664 71.46 162.532 71.292C162.4 71.136 162.334 70.902 162.334 70.59C162.334 70.278 162.532 69.528 162.928 68.34C163.336 67.164 163.582 66.414 163.666 66.09C163.366 65.586 162.352 63.066 160.624 58.53C160.6 58.47 160.588 58.392 160.588 58.296C160.588 58.2 160.66 58.074 160.804 57.918C160.948 57.762 161.146 57.684 161.398 57.684C161.65 57.684 161.854 57.81 162.01 58.062C162.178 58.494 162.454 59.25 162.838 60.33C163.222 61.398 163.516 62.172 163.72 62.652C163.936 63.132 164.14 63.63 164.332 64.146C164.5 63.582 164.788 62.49 165.196 60.87C165.604 59.238 165.838 58.308 165.898 58.08C165.946 57.816 166.21 57.684 166.69 57.684ZM178.072 54.228C178.876 54.228 179.764 54.384 180.736 54.696C180.952 54.864 181.06 55.05 181.06 55.254C181.06 55.446 180.958 55.62 180.754 55.776C180.562 55.92 180.34 55.992 180.088 55.992C179.44 55.824 178.834 55.74 178.27 55.74C176.974 55.74 175.99 56.124 175.318 56.892C174.646 57.66 174.31 58.8 174.31 60.312C174.31 61.824 174.706 63.006 175.498 63.858C175.906 64.302 176.392 64.524 176.956 64.524C177.52 64.524 178.42 64.224 179.656 63.624C180.088 63.42 180.376 63.318 180.52 63.318C180.832 63.318 180.988 63.48 180.988 63.804C180.988 64.128 180.838 64.398 180.538 64.614C179.506 65.154 178.702 65.52 178.126 65.712C177.55 65.892 177.052 65.982 176.632 65.982C175.768 65.982 175.03 65.664 174.418 65.028C173.326 63.852 172.78 62.25 172.78 60.222C172.78 58.182 173.296 56.676 174.328 55.704C175.372 54.72 176.62 54.228 178.072 54.228ZM182.515 54.354C182.551 53.898 182.623 53.604 182.731 53.472C182.851 53.328 183.037 53.256 183.289 53.256C183.805 53.256 184.063 53.466 184.063 53.886C184.063 54.21 184.033 55.056 183.973 56.424C183.925 57.792 183.901 59.016 183.901 60.096C183.901 61.176 183.943 62.046 184.027 62.706C184.171 63.858 184.375 64.434 184.639 64.434C184.903 64.434 185.101 64.248 185.233 63.876C185.293 63.732 185.389 63.606 185.521 63.498C185.653 63.378 185.821 63.318 186.025 63.318C186.445 63.318 186.655 63.672 186.655 64.38C186.655 64.764 186.445 65.148 186.025 65.532C185.617 65.904 185.209 66.09 184.801 66.09C184.393 66.09 184.063 66.024 183.811 65.892C183.571 65.748 183.373 65.538 183.217 65.262C183.073 64.986 182.953 64.722 182.857 64.47C182.773 64.206 182.713 63.888 182.677 63.516C182.605 62.916 182.551 61.956 182.515 60.636C182.491 59.304 182.479 58.038 182.479 56.838C182.479 55.626 182.491 54.798 182.515 54.354ZM190.536 57.612C191.4 57.612 192.108 58.026 192.66 58.854C193.224 59.682 193.506 60.678 193.506 61.842C193.506 62.994 193.218 63.978 192.642 64.794C192.078 65.61 191.322 66.018 190.374 66.018C189.438 66.018 188.682 65.604 188.106 64.776C187.53 63.936 187.242 63.006 187.242 61.986C187.242 60.678 187.506 59.634 188.034 58.854C188.598 58.026 189.432 57.612 190.536 57.612ZM190.32 59.088C189.816 59.088 189.402 59.352 189.078 59.88C188.754 60.408 188.592 60.966 188.592 61.554C188.592 62.466 188.772 63.162 189.132 63.642C189.492 64.122 189.9 64.362 190.356 64.362C191.172 64.362 191.694 64.008 191.922 63.3C192.018 62.964 192.066 62.544 192.066 62.04C192.066 60.072 191.484 59.088 190.32 59.088ZM195.06 57.594L195.96 57.612C196.164 57.612 196.278 57.606 196.302 57.594V53.904C196.314 53.7 196.416 53.526 196.608 53.382C196.8 53.238 196.98 53.166 197.148 53.166C197.316 53.166 197.448 53.22 197.544 53.328C197.652 53.436 197.7 53.604 197.688 53.832C197.676 54.06 197.67 55.308 197.67 57.576L199.776 57.504C200.136 57.504 200.316 57.714 200.316 58.134C200.316 58.446 200.22 58.68 200.028 58.836C199.848 58.992 199.65 59.076 199.434 59.088C199.23 59.1 199.026 59.106 198.822 59.106L197.724 59.088C197.724 59.58 197.772 60.552 197.868 62.004C197.976 63.456 198.06 64.398 198.12 64.83C198.18 65.25 198.192 65.526 198.156 65.658C198.12 65.778 198.054 65.862 197.958 65.91C197.802 65.982 197.592 66.018 197.328 66.018C197.064 66.018 196.908 65.874 196.86 65.586C196.62 64.014 196.458 61.854 196.374 59.106C196.266 59.118 195.852 59.124 195.132 59.124C194.412 59.124 194.052 58.914 194.052 58.494C194.052 57.894 194.388 57.594 195.06 57.594ZM202.724 60.168L202.868 64.416C202.868 64.944 202.844 65.25 202.796 65.334C202.772 65.55 202.7 65.718 202.58 65.838C202.472 65.958 202.256 66.018 201.932 66.018C201.776 66.018 201.65 65.922 201.554 65.73C201.458 65.526 201.404 65.298 201.392 65.046C201.308 62.934 201.194 60.954 201.05 59.106C200.918 57.246 200.852 55.518 200.852 53.922C200.852 53.67 200.936 53.472 201.104 53.328C201.272 53.184 201.47 53.112 201.698 53.112C202.034 53.112 202.232 53.4 202.292 53.976C202.364 54.552 202.406 55.272 202.418 56.136C202.442 57 202.466 57.63 202.49 58.026C203.09 57.714 203.69 57.558 204.29 57.558C205.682 57.558 206.564 58.17 206.936 59.394C207.152 60.09 207.26 60.984 207.26 62.076C207.26 62.436 207.224 63.006 207.152 63.786C207.092 64.554 207.056 65.052 207.044 65.28C207.032 65.508 206.93 65.688 206.738 65.82C206.558 65.94 206.36 66 206.144 66C205.808 66 205.64 65.82 205.64 65.46L205.766 62.328C205.766 62.064 205.754 61.626 205.73 61.014C205.706 60.402 205.58 59.916 205.352 59.556C205.136 59.196 204.752 59.016 204.2 59.016C203.216 59.016 202.724 59.4 202.724 60.168ZM210.948 57.666C211.584 57.666 212.19 57.852 212.766 58.224C213.342 58.596 213.63 59.058 213.63 59.61C213.63 60.15 213.396 60.678 212.928 61.194C212.46 61.698 211.836 62.004 211.056 62.112C210.72 62.16 210.216 62.184 209.544 62.184C209.676 63.204 209.934 63.876 210.318 64.2C210.438 64.332 210.6 64.398 210.804 64.398C211.548 64.398 212.172 64.164 212.676 63.696C213.18 63.216 213.54 62.976 213.756 62.976C213.852 62.976 213.996 63.066 214.188 63.246C214.38 63.426 214.476 63.594 214.476 63.75C214.476 64.062 214.098 64.512 213.342 65.1C213.006 65.376 212.598 65.61 212.118 65.802C211.65 65.982 211.212 66.072 210.804 66.072C209.76 66.072 208.992 65.4 208.5 64.056C208.188 63.228 208.032 62.316 208.032 61.32C208.032 60.324 208.266 59.466 208.734 58.746C209.202 58.026 209.94 57.666 210.948 57.666ZM211.038 58.908C210.582 58.908 210.192 59.166 209.868 59.682C209.748 59.862 209.634 60.27 209.526 60.906C211.206 60.906 212.046 60.492 212.046 59.664C212.046 59.16 211.71 58.908 211.038 58.908ZM215.834 59.88C215.834 59.172 216.086 58.608 216.59 58.188C217.094 57.768 217.676 57.558 218.336 57.558C219.008 57.558 219.65 57.678 220.262 57.918C220.874 58.158 221.18 58.476 221.18 58.872C221.18 59.076 221.102 59.238 220.946 59.358C220.79 59.478 220.652 59.538 220.532 59.538C220.424 59.538 220.334 59.538 220.262 59.538C220.202 59.526 219.962 59.412 219.542 59.196C219.134 58.98 218.756 58.872 218.408 58.872C218.06 58.872 217.76 58.962 217.508 59.142C217.268 59.31 217.148 59.562 217.148 59.898C217.148 60.234 217.286 60.498 217.562 60.69C217.85 60.882 218.348 61.05 219.056 61.194C219.764 61.326 220.304 61.518 220.676 61.77C221.06 62.022 221.252 62.49 221.252 63.174C221.252 64.17 220.988 64.878 220.46 65.298C219.944 65.706 219.314 65.91 218.57 65.91C217.826 65.91 217.19 65.808 216.662 65.604C216.146 65.4 215.888 65.094 215.888 64.686C215.888 64.218 216.122 63.984 216.59 63.984C216.71 63.984 216.974 64.068 217.382 64.236C217.79 64.404 218.192 64.488 218.588 64.488C218.996 64.488 219.302 64.362 219.506 64.11C219.722 63.846 219.83 63.546 219.83 63.21C219.83 62.874 219.692 62.634 219.416 62.49C219.14 62.334 218.72 62.208 218.156 62.112C217.592 62.016 217.178 61.914 216.914 61.806C216.194 61.518 215.834 60.876 215.834 59.88Z" fill="#333333"></path><defs><clipPath id="clip0_13175_26862"><rect width="71.0803" height="64" fill="white" transform="translate(0 1)"></rect></clipPath></defs></svg> 